{
  "accessors": [
    {
      "bufferView": 2,
      "componentType": 5126,
      "count": 796,
      "max": [
        2.028330087661743,
        1.9072890281677246,
        0.003739000065252185
      ],
      "min": [
        -1.9931269884109497,
        -2.112396001815796,
        -2.2248780727386475
      ],
      "type": "VEC3"
    },
    {
      "bufferView": 2,
      "byteOffset": 9552,
      "componentType": 5126,
      "count": 796,
      "max": [
        0.9995075464248657,
        0.998083233833313,
        1.0
      ],
      "min": [
        -0.9982365369796753,
        -0.9999624490737915,
        -0.999999463558197
      ],
      "type": "VEC3"
    },
    {
      "bufferView": 3,
      "componentType": 5126,
      "count": 796,
      "max": [
        0.9993948936462402,
        0.9998602867126465,
        0.9922416806221008,
        1.0
      ],
      "min": [
        -0.9999979734420776,
        -0.9999690055847168,
        -0.013503347523510456,
        -1.0
      ],
      "type": "VEC4"
    },
    {
      "bufferView": 1,
      "componentType": 5126,
      "count": 796,
      "max": [
        0.8985520005226135,
        0.9980469942092896
      ],
      "min": [
        0.0019529999699443579,
        0.0019529999699443579
      ],
      "type": "VEC2"
    },
    {
      "bufferView": 0,
      "componentType": 5125,
      "count": 4557,
      "type": "SCALAR"
    },
    {
      "bufferView": 2,
      "byteOffset": 19104,
      "componentType": 5126,
      "count": 6920,
      "max": [
        1.1587079763412476,
        1.4593240022659302,
        2.8113338947296143
      ],
      "min": [
        -1.1587079763412476,
        -2.0353291034698486,
        -0.06885799765586853
      ],
      "type": "VEC3"
    },
    {
      "bufferView": 2,
      "byteOffset": 102144,
      "componentType": 5126,
      "count": 6920,
      "max": [
        0.9998480081558228,
        0.9999998807907104,
        0.9996185898780823
      ],
      "min": [
        -0.9998480081558228,
        -0.9999856352806091,
        -0.9999342560768127
      ],
      "type": "VEC3"
    },
    {
      "bufferView": 1,
      "byteOffset": 6368,
      "componentType": 5126,
      "count": 6920,
      "max": [
        0.9980469942092896,
        0.6654199957847595
      ],
      "min": [
        0.0019529999699443579,
        0.0019529999699443579
      ],
      "type": "VEC2"
    },
    {
      "bufferView": 0,
      "byteOffset": 18228,
      "componentType": 5125,
      "count": 40266,
      "type": "SCALAR"
    },
    {
      "bufferView": 2,
      "byteOffset": 185184,
      "componentType": 5126,
      "count": 410,
      "max": [
        0.13006600737571716,
        1.565551996231079,
        2.3516409397125244
      ],
      "min": [
        -0.0768589973449707,
        1.3586230278015137,
        1.9853390455245972
      ],
      "type": "VEC3"
    },
    {
      "bufferView": 2,
      "byteOffset": 190104,
      "componentType": 5126,
      "count": 410,
      "max": [
        0.998504102230072,
        0.9983671307563782,
        0.9999710917472839
      ],
      "min": [
        -0.9983722567558289,
        -0.9985076189041138,
        -0.998557448387146
      ],
      "type": "VEC3"
    },
    {
      "bufferView": 1,
      "byteOffset": 61728,
      "componentType": 5126,
      "count": 410,
      "max": [
        0.9980469942092896,
        0.9543269872665405
      ],
      "min": [
        0.0019529999699443579,
        0.0019529999699443579
      ],
      "type": "VEC2"
    },
    {
      "bufferView": 0,
      "byteOffset": 179292,
      "componentType": 5125,
      "count": 2208,
      "type": "SCALAR"
    },
    {
      "bufferView": 2,
      "byteOffset": 195024,
      "componentType": 5126,
      "count": 2458,
      "max": [
        1.128147006034851,
        -1.0176409482955933,
        0.7907170057296753
      ],
      "min": [
        -1.1305309534072876,
        -1.2744280099868774,
        0.3384310007095337
      ],
      "type": "VEC3"
    },
    {
      "bufferView": 2,
      "byteOffset": 224520,
      "componentType": 5126,
      "count": 2458,
      "max": [
        0.9999648928642273,
        0.9997371435165405,
        0.9903912544250488
      ],
      "min": [
        -0.9999648928642273,
        -0.9998372197151184,
        -0.998827338218689
      ],
      "type": "VEC3"
    },
    {
      "bufferView": 1,
      "byteOffset": 65008,
      "componentType": 5126,
      "count": 2458,
      "max": [
        0.9573330283164978,
        0.9980469942092896
      ],
      "min": [
        0.0019529999699443579,
        0.0019529999699443579
      ],
      "type": "VEC2"
    },
    {
      "bufferView": 0,
      "byteOffset": 188124,
      "componentType": 5125,
      "count": 13248,
      "type": "SCALAR"
    },
    {
      "bufferView": 2,
      "byteOffset": 254016,
      "componentType": 5126,
      "count": 2456,
      "max": [
        0.5903930068016052,
        -1.0596749782562256,
        0.9506409764289856
      ],
      "min": [
        -0.5903930068016052,
        -1.2680009603500366,
        0.6140069961547852
      ],
      "type": "VEC3"
    },
    {
      "bufferView": 2,
      "byteOffset": 283488,
      "componentType": 5126,
      "count": 2456,
      "max": [
        0.9997995495796204,
        0.9999237656593323,
        0.9990708827972412
      ],
      "min": [
        -0.9997995495796204,
        -0.9996856451034546,
        -0.9978684782981873
      ],
      "type": "VEC3"
    },
    {
      "bufferView": 1,
      "byteOffset": 84672,
      "componentType": 5126,
      "count": 2456,
      "max": [
        0.9980469942092896,
        0.9901769757270813
      ],
      "min": [
        0.0019529999699443579,
        0.0019529999699443579
      ],
      "type": "VEC2"
    },
    {
      "bufferView": 0,
      "byteOffset": 241116,
      "componentType": 5125,
      "count": 13248,
      "type": "SCALAR"
    }
  ],
  "asset": {
    "extras": {
      "author": "Dental Kinder (https://sketchfab.com/chbn.junior)",
      "license": "CC-BY-4.0 (http://creativecommons.org/licenses/by/4.0/)",
      "source": "https://sketchfab.com/3d-models/charmander-881ee010c986428eb079a5e0db2ea47d",
      "title": "Charmander"
    },
    "generator": "Sketchfab-10.79.0",
    "version": "2.0"
  },
  "bufferViews": [
    {
      "buffer": 0,
      "byteLength": 294108,
      "name": "floatBufferViews",
      "target": 34963
    },
    {
      "buffer": 0,
      "byteLength": 104320,
      "byteOffset": 294108,
      "byteStride": 8,
      "name": "floatBufferViews",
      "target": 34962
    },
    {
      "buffer": 0,
      "byteLength": 312960,
      "byteOffset": 398428,
      "byteStride": 12,
      "name": "floatBufferViews",
      "target": 34962
    },
    {
      "buffer": 0,
      "byteLength": 12736,
      "byteOffset": 711388,
      "byteStride": 16,
      "name": "floatBufferViews",
      "target": 34962
    }
  ],
  "buffers": [
    {
      "byteLength": 724124,
      "uri": "scene.bin"
    }
  ],
  "extensionsRequired": [
    "KHR_materials_pbrSpecularGlossiness"
  ],
  "extensionsUsed": [
    "KHR_materials_pbrSpecularGlossiness"
  ],
  "images": [
    {
      "uri": "textures/Ground4_diffuse.png"
    },
    {
      "uri": "textures/Ground4_normal.png"
    },
    {
      "uri": "textures/Ground4_occlusion.png"
    },
    {
      "uri": "textures/PM3D_Sphere3D1_diffuse.png"
    },
    {
      "uri": "textures/PM3D_Sphere3D1_specularGlossiness.png"
    },
    {
      "uri": "textures/PM3D_Sphere3D1_occlusion.png"
    },
    {
      "uri": "textures/PM3D_SweepProfile3D1_diffuse.png"
    }
  ],
  "materials": [
    {
      "doubleSided": true,
      "extensions": {
        "KHR_materials_pbrSpecularGlossiness": {
          "diffuseFactor": [
            1.0,
            1.0,
            1.0,
            1.0
          ],
          "diffuseTexture": {
            "index": 0
          },
          "glossinessFactor": 0.22002778639135645,
          "specularFactor": [
            0.013870395028850423,
            0.013870395028850423,
            0.013870395028850423
          ]
        }
      },
      "name": "Ground4",
      "normalTexture": {
        "index": 1
      },
      "occlusionTexture": {
        "index": 2
      }
    },
    {
      "doubleSided": true,
      "extensions": {
        "KHR_materials_pbrSpecularGlossiness": {
          "diffuseFactor": [
            1.0,
            1.0,
            1.0,
            1.0
          ],
          "diffuseTexture": {
            "index": 3
          },
          "glossinessFactor": 1.0,
          "specularFactor": [
            0.0,
            0.0,
            0.0
          ],
          "specularGlossinessTexture": {
            "index": 4
          }
        }
      },
      "name": "PM3D_Sphere3D1",
      "occlusionTexture": {
        "index": 5,
        "strength": 0.9927782743252528
      }
    },
    {
      "doubleSided": true,
      "emissiveFactor": [
        1.0,
        0.08543592882640769,
        0.08543592882640769
      ],
      "extensions": {
        "KHR_materials_pbrSpecularGlossiness": {
          "diffuseFactor": [
            1.0,
            1.0,
            1.0,
            1.0
          ],
          "diffuseTexture": {
            "index": 6
          },
          "glossinessFactor": 0.4,
          "specularFactor": [
            0.0,
            0.0,
            0.0
          ]
        }
      },
      "name": "PM3D_SweepProfile3D1"
    },
    {
      "doubleSided": true,
      "extensions": {
        "KHR_materials_pbrSpecularGlossiness": {
          "diffuseFactor": [
            1.0,
            1.0,
            1.0,
            1.0
          ],
          "glossinessFactor": 0.4,
          "specularFactor": [
            0.0,
            0.0,
            0.0
          ]
        }
      },
      "name": "PM3D_SweepProfile3D3"
    },
    {
      "doubleSided": true,
      "extensions": {
        "KHR_materials_pbrSpecularGlossiness": {
          "diffuseFactor": [
            1.0,
            1.0,
            1.0,
            1.0
          ],
          "glossinessFactor": 0.4,
          "specularFactor": [
            0.0,
            0.0,
            0.0
          ]
        }
      },
      "name": "PM3D_SweepProfile3D3_1"
    }
  ],
  "meshes": [
    {
      "name": "Object_0",
      "primitives": [
        {
          "attributes": {
            "NORMAL": 1,
            "POSITION": 0,
            "TANGENT": 2,
            "TEXCOORD_0": 3
          },
          "indices": 4,
          "material": 0,
          "mode": 4
        }
      ]
    },
    {
      "name": "Object_1",
      "primitives": [
        {
          "attributes": {
            "NORMAL": 6,
            "POSITION": 5,
            "TEXCOORD_0": 7
          },
          "indices": 8,
          "material": 1,
          "mode": 4
        }
      ]
    },
    {
      "name": "Object_2",
      "primitives": [
        {
          "attributes": {
            "NORMAL": 10,
            "POSITION": 9,
            "TEXCOORD_0": 11
          },
          "indices": 12,
          "material": 2,
          "mode": 4
        }
      ]
    },
    {
      "name": "Object_3",
      "primitives": [
        {
          "attributes": {
            "NORMAL": 14,
            "POSITION": 13,
            "TEXCOORD_0": 15
          },
          "indices": 16,
          "material": 3,
          "mode": 4
        }
      ]
    },
    {
      "name": "Object_4",
      "primitives": [
        {
          "attributes": {
            "NORMAL": 18,
            "POSITION": 17,
            "TEXCOORD_0": 19
          },
          "indices": 20,
          "material": 4,
          "mode": 4
        }
      ]
    }
  ],
  "nodes": [
    {
      "children": [
        1
      ],
      "matrix": [
        1.0,
        0.0,
        0.0,
        0.0,
        0.0,
        2.220446049250313e-16,
        -1.0,
        0.0,
        0.0,
        1.0,
        2.220446049250313e-16,
        0.0,
        0.0,
        0.0,
        0.0,
        1.0
      ],
      "name": "Sketchfab_model"
    },
    {
      "children": [
        2,
        3,
        4,
        5,
        6
      ],
      "name": "Charmander.obj.cleaner.materialmerger.gles"
    },
    {
      "mesh": 0,
      "name": "Object_2"
    },
    {
      "mesh": 1,
      "name": "Object_3"
    },
    {
      "mesh": 2,
      "name": "Object_4"
    },
    {
      "mesh": 3,
      "name": "Object_5"
    },
    {
      "mesh": 4,
      "name": "Object_6"
    }
  ],
  "samplers": [
    {
      "magFilter": 9729,
      "minFilter": 9987,
      "wrapS": 10497,
      "wrapT": 10497
    }
  ],
  "scene": 0,
  "scenes": [
    {
      "name": "Sketchfab_Scene",
      "nodes": [
        0
      ]
    }
  ],
  "textures": [
    {
      "sampler": 0,
      "source": 0
    },
    {
      "sampler": 0,
      "source": 1
    },
    {
      "sampler": 0,
      "source": 2
    },
    {
      "sampler": 0,
      "source": 3
    },
    {
      "sampler": 0,
      "source": 4
    },
    {
      "sampler": 0,
      "source": 5
    },
    {
      "sampler": 0,
      "source": 6
    }
  ]
}
